<?xml version="1.0" encoding="UTF-8" standalone="no"?><svg xmlns="http://www.w3.org/2000/svg" xmlns:xlink="http://www.w3.org/1999/xlink" fill="none" height="22" preserveAspectRatio="xMidYMid meet" style="fill: none" version="1" viewBox="1.0 1.0 22.0 22.0" width="22" zoomAndPan="magnify"><g id="change1_1"><path clip-rule="evenodd" d="M12 3C7.02944 3 3 7.02944 3 12C3 16.9706 7.02944 21 12 21C16.9706 21 21 16.9706 21 12C21 7.02944 16.9706 3 12 3ZM1 12C1 5.92487 5.92487 1 12 1C18.0751 1 23 5.92487 23 12C23 18.0751 18.0751 23 12 23C5.92487 23 1 18.0751 1 12Z" fill="#a6a6a6" fill-rule="evenodd"/></g><g id="change1_2"><path clip-rule="evenodd" d="M8.75 7C8.75 6.44772 9.19772 6 9.75 6H12.75C14.683 6 16.25 7.567 16.25 9.5C16.25 11.433 14.683 13 12.75 13H9.75C9.19772 13 8.75 12.5523 8.75 12V7ZM10.75 8V11H12.75C13.5784 11 14.25 10.3284 14.25 9.5C14.25 8.67157 13.5784 8 12.75 8H10.75Z" fill="#a6a6a6" fill-rule="evenodd"/></g><g id="change1_3"><path clip-rule="evenodd" d="M8.75 12C8.75 11.4477 9.19772 11 9.75 11H12.75C14.683 11 16.25 12.567 16.25 14.5C16.25 16.433 14.683 18 12.75 18H9.75C9.19772 18 8.75 17.5523 8.75 17V12ZM10.75 13V16H12.75C13.5784 16 14.25 15.3284 14.25 14.5C14.25 13.6716 13.5784 13 12.75 13H10.75Z" fill="#a6a6a6" fill-rule="evenodd"/></g><g id="change1_4"><path clip-rule="evenodd" d="M11.75 5V7H9.75V5H11.75Z" fill="#a6a6a6" fill-rule="evenodd"/></g><g id="change1_5"><path clip-rule="evenodd" d="M11.75 17V19H9.75V17H11.75Z" fill="#a6a6a6" fill-rule="evenodd"/></g><g id="change1_6"><path clip-rule="evenodd" d="M14.25 5V7H12.25V5H14.25Z" fill="#a6a6a6" fill-rule="evenodd"/></g><g id="change1_7"><path clip-rule="evenodd" d="M14.25 17V19H12.25V17H14.25Z" fill="#a6a6a6" fill-rule="evenodd"/></g></svg>